<?xml version="1.0" standalone="no"?>
<!DOCTYPE svg PUBLIC "-//W3C//DTD SVG 20010904//EN"
 "http://www.w3.org/TR/2001/REC-SVG-20010904/DTD/svg10.dtd">
<svg version="1.0" xmlns="http://www.w3.org/2000/svg"
 width="181.000000pt" height="278.000000pt" viewBox="0 0 181.000000 278.000000"
 preserveAspectRatio="xMidYMid meet"  >

<g transform="translate(0,278) scale(0.1,-0.1)"
fill="#ffff" stroke="white">
<path d="M678 2769 c-84 -11 -210 -57 -290 -105 -138 -84 -268 -237 -327 -385
-56 -143 -56 -136 -56 -889 0 -753 0 -746 56 -889 82 -206 271 -386 480 -455
105 -35 188 -46 364 -46 176 0 259 11 364 46 116 39 205 96 307 198 77 77 98
107 141 193 90 179 88 157 88 953 0 796 2 774 -88 953 -43 86 -64 116 -141
193 -135 135 -276 208 -452 234 -82 12 -352 11 -446 -1z m172 -246 l0 -148
-34 -22 c-57 -37 -66 -71 -66 -245 0 -172 10 -207 67 -243 l32 -20 1 -102 0
-103 -371 0 -371 0 4 238 c4 212 7 244 27 307 36 111 87 192 175 281 88 88
172 140 276 173 82 25 99 28 188 30 l72 1 0 -147z m383 112 c100 -35 206 -105
283 -187 73 -79 113 -145 150 -253 27 -77 28 -89 32 -317 l4 -238 -371 0 -371
0 0 103 1 102 31 20 c58 38 68 71 68 243 0 172 -13 217 -70 247 l-30 16 0 151
0 151 98 -6 c67 -4 121 -14 175 -32z m465 -1537 l-3 -433 -29 -84 c-79 -225
-281 -409 -502 -456 -95 -20 -423 -20 -518 0 -119 25 -228 87 -327 185 -94 93
-142 170 -180 285 -23 68 -23 82 -27 503 l-3 432 796 0 796 0 -3 -432z"/>
</g>
</svg>
