<svg width="800" height="800" viewBox="0 0 461 467" fill="none" xmlns="http://www.w3.org/2000/svg">
<mask id="mask0_2811_1550" style="mask-type:luminance" maskUnits="userSpaceOnUse" x="0" y="0" width="461" height="467">
<path d="M0.197759 0L0.197754 467L461 467L461 5.49501e-06L0.197759 0Z" fill="white"/>
</mask>
<g mask="url(#mask0_2811_1550)">
<path d="M448.441 49.9232C448.441 66.7837 431.243 97.0153 400.01 135.054C337.896 210.716 239.326 293.33 180.291 319.213C161.069 327.643 147.566 329.31 141.239 324.041C138.472 321.734 137.065 318.153 137.065 313.395C137.065 296.535 154.264 266.303 185.496 228.265C247.61 152.602 346.18 69.988 405.22 44.1005C424.442 35.6756 437.944 34.0035 444.272 39.2724C447.039 41.5789 448.446 45.1596 448.446 49.9178L448.441 49.9232ZM137.8 313.401C137.8 317.858 139.098 321.197 141.658 323.326C147.778 328.422 161.051 326.718 180.038 318.39C238.993 292.54 337.437 210.023 399.487 134.441C430.13 97.1121 447.706 66.3052 447.706 49.9232C447.706 45.4661 446.408 42.1273 443.849 39.9982C437.728 34.9014 424.455 36.6057 405.472 44.9338C346.518 70.7837 248.07 153.307 186.019 228.889C155.377 266.217 137.8 297.019 137.8 313.406L137.8 313.401Z" fill="rgba(105, 104, 104, 0.1)"/>
<path d="M450.505 53.2725C450.505 61.8748 446.134 73.7943 437.507 88.6924C428.611 104.058 415.622 121.844 398.902 141.548C334.196 217.802 233.143 299.019 173.643 322.594C154.899 330.024 141.672 331.089 135.389 325.68C132.55 323.234 131.107 319.519 131.107 314.632C131.107 306.029 135.479 294.11 144.105 279.212C153.002 263.846 165.991 246.061 182.711 226.356C247.416 150.102 348.47 68.8857 407.974 45.3046C426.718 37.8798 439.941 36.8099 446.224 42.2186C449.063 44.6648 450.505 48.3799 450.505 53.2671L450.505 53.2725ZM131.865 314.632C131.865 319.212 133.199 322.68 135.831 324.949C141.906 330.18 154.899 329.067 173.405 321.734C232.814 298.196 333.737 217.071 398.374 140.903C431.027 102.424 449.753 70.4825 449.753 53.2725C449.753 48.6918 448.419 45.2186 445.787 42.9551C439.711 37.7239 426.718 38.8368 408.217 46.1648C348.803 69.7082 247.881 150.828 183.248 227.001C150.595 265.48 131.869 297.422 131.869 314.632L131.865 314.632Z" fill="rgba(105, 104, 104, 0.1)"/>
<path d="M452.403 56.9394C452.403 75.2891 432.401 108.618 397.527 148.371C330.235 225.082 226.784 304.648 166.923 325.74C148.445 332.25 135.871 332.702 129.561 327.073C126.645 324.476 125.167 320.61 125.167 315.584C125.167 297.234 145.169 263.905 180.043 224.152C247.335 147.441 350.786 67.875 410.651 46.7779C429.129 40.267 441.699 39.8208 448.013 45.4445C450.929 48.0414 452.407 51.907 452.407 56.934L452.403 56.9394ZM125.942 315.578C125.942 320.299 127.317 323.917 130.026 326.331C136.047 331.697 148.729 331.186 166.707 324.853C226.468 303.793 329.775 224.324 396.995 147.699C431.716 108.118 451.632 75.0364 451.632 56.9394C451.632 52.2188 450.257 48.6005 447.549 46.1865C441.527 40.8208 428.845 41.3316 410.872 47.665C351.106 68.7245 247.799 148.199 180.579 224.819C145.858 264.4 125.942 297.481 125.942 315.578Z" fill="rgba(105, 104, 104, 0.1)"/>
<path d="M454.12 60.9233C454.12 80.2355 432.888 114.72 395.868 155.527C325.994 232.55 220.249 310.207 160.141 328.638C142.244 334.127 129.999 333.982 123.757 328.202C120.764 325.433 119.25 321.406 119.25 316.229C119.25 296.917 140.482 262.432 177.501 221.625C247.371 144.602 353.121 66.9449 413.233 48.5145C431.13 43.0251 443.371 43.1703 449.613 48.95C452.605 51.7188 454.12 55.7458 454.12 60.9233ZM120.047 316.229C120.047 321.1 121.463 324.874 124.248 327.455C130.201 332.966 142.546 333.057 159.947 327.718C219.947 309.32 325.539 231.76 395.332 154.828C432.189 114.198 453.327 79.972 453.327 60.9233C453.327 56.0523 451.911 52.278 449.126 49.6973C443.173 44.1865 430.828 44.0951 413.432 49.4339C353.427 67.832 247.831 145.392 178.042 222.324C141.185 262.954 120.047 297.18 120.047 316.229Z" fill="rgba(105, 104, 104, 0.1)"/>
<path d="M455.648 65.2245C455.648 85.5743 433.149 121.215 393.921 163.011C321.487 240.195 213.547 315.67 153.313 331.256C136.038 335.724 124.158 334.987 117.997 329.062C114.928 326.111 113.373 321.901 113.373 316.557C113.373 296.212 135.871 260.567 175.099 218.77C247.534 141.586 355.473 66.1116 415.712 50.5253C432.982 46.0575 444.863 46.7941 451.024 52.7189C454.093 55.6706 455.648 59.8803 455.648 65.2245ZM114.189 316.557C114.189 321.594 115.644 325.546 118.511 328.304C124.383 333.955 136.358 334.648 153.141 330.304C213.263 314.745 321.032 239.373 393.381 162.285C432.433 120.672 454.832 85.2947 454.832 65.2245C454.832 60.1868 453.376 56.2351 450.51 53.477C444.637 47.8264 432.662 47.1382 415.883 51.4769C355.762 67.0364 247.989 142.409 175.64 219.501C136.588 261.115 114.189 296.492 114.189 316.562L114.189 316.557Z" fill="rgba(105, 104, 104, 0.1)"/>
<path d="M456.968 69.8536C456.968 91.311 433.167 128.123 391.668 170.845C316.692 248.029 206.683 321.041 146.44 333.595C129.837 337.057 118.344 335.729 112.282 329.654C109.136 326.498 107.541 322.094 107.541 316.573C107.541 295.116 131.342 258.308 172.841 215.582C247.818 138.398 357.826 65.3858 418.074 52.8264C434.677 49.364 446.165 50.692 452.227 56.7674C455.373 59.9233 456.968 64.3267 456.968 69.8483L456.968 69.8536ZM108.379 316.573C108.379 321.788 109.876 325.933 112.823 328.89C118.687 334.767 129.945 336.019 146.296 332.611C206.408 320.078 316.236 247.174 391.118 170.087C432.433 127.554 456.13 91.0206 456.13 69.8536C456.13 64.6385 454.634 60.4932 451.686 57.5362C445.827 51.6598 434.565 50.4071 418.218 53.8157C358.101 66.3482 248.273 139.258 173.391 216.34C132.076 258.873 108.379 295.406 108.379 316.573Z" fill="rgba(105, 104, 104, 0.1)"/>
<path d="M458.077 74.7998C458.077 97.4561 432.937 135.435 389.099 179.006C311.608 256.023 199.657 326.277 139.544 335.616C123.649 338.084 112.575 336.181 106.635 329.955C103.413 326.578 101.777 321.965 101.777 316.25C101.777 293.594 126.916 255.615 170.754 212.044C248.246 135.027 360.196 64.7728 420.314 55.4339C436.209 52.9662 447.278 54.8694 453.223 61.0953C456.445 64.4717 458.081 69.0847 458.081 74.7998L458.077 74.7998ZM102.637 316.25C102.637 321.659 104.174 326.008 107.203 329.18C112.954 335.202 123.797 337.025 139.436 334.595C199.414 325.277 311.166 255.125 388.554 178.216C410.615 156.285 427.872 135.903 439.842 117.629C451.213 100.268 457.221 85.4559 457.221 74.7945C457.221 69.3858 455.684 65.0362 452.655 61.8641C446.909 55.8425 436.065 54.0199 420.426 56.4501C360.444 65.7674 248.692 135.919 171.304 212.834C149.243 234.765 131.986 255.147 120.016 273.421C108.645 290.782 102.637 305.594 102.637 316.256L102.637 316.25Z" fill="rgba(105, 104, 104, 0.1)"/>
<path d="M458.96 80.0741C458.96 91.5636 452.538 107.22 440.392 125.354C427.701 144.296 409.475 165.21 386.21 187.517C306.24 264.19 192.487 331.39 132.64 337.315C117.488 338.815 106.86 336.342 101.056 329.965C97.7611 326.347 96.0935 321.514 96.0935 315.594C96.0935 304.105 102.516 288.449 114.662 270.314C127.353 251.373 145.579 230.458 168.844 208.157C248.814 131.484 362.567 64.2835 422.418 58.3587C437.571 56.8586 448.193 59.3318 453.998 65.7083C457.293 69.3266 458.96 74.16 458.96 80.0795L458.96 80.0741ZM96.9723 315.594C96.9723 321.207 98.5452 325.783 101.65 329.191C107.266 335.358 117.668 337.74 132.563 336.267C192.261 330.358 305.799 263.26 385.656 186.7C408.866 164.447 427.052 143.586 439.702 124.704C451.727 106.757 458.081 91.327 458.081 80.0795C458.081 74.4665 456.508 69.8912 453.403 66.4825C447.788 60.3157 437.386 57.9339 422.491 59.4071C362.788 65.3158 249.251 132.414 169.393 208.974C146.183 231.227 127.998 252.088 115.347 270.97C103.323 288.916 96.9678 304.347 96.9678 315.594L96.9723 315.594Z" fill="rgba(105, 104, 104, 0.1)"/>
<path d="M459.605 85.6602C459.605 97.7894 452.822 114.102 439.995 132.838C426.79 152.124 407.073 174.086 382.979 196.35C300.571 272.497 185.172 336.326 125.731 338.643C111.354 339.202 101.2 336.181 95.5527 329.654C92.195 325.777 90.4915 320.702 90.4915 314.573C90.4915 302.443 97.2743 286.131 110.101 267.394C123.306 248.109 143.024 226.146 167.117 203.883C249.526 127.736 364.929 63.9071 424.37 61.5899C438.742 61.0308 448.896 64.0523 454.548 70.5793C457.906 74.4557 459.609 79.5311 459.609 85.6602L459.605 85.6602ZM91.3973 314.578C91.3973 320.406 93.0063 325.218 96.1791 328.879C101.646 335.191 111.579 338.116 125.699 337.562C184.978 335.256 300.142 271.524 382.424 195.495C430.184 151.366 458.699 110.3 458.699 85.6602C458.699 79.8322 457.09 75.0203 453.917 71.3589C448.45 65.047 438.517 62.1222 424.397 62.676C365.118 64.9878 249.949 128.715 167.672 204.743C119.912 248.873 91.3973 289.932 91.3973 314.578Z" fill="rgba(105, 104, 104, 0.1)"/>
<path d="M460.001 91.5634C460.001 118.037 429.868 160.64 379.4 205.528C294.608 280.948 177.718 341.095 118.84 339.605C90.87 338.896 84.9976 324.858 84.9976 313.207C84.9976 286.733 115.126 244.131 165.599 199.243C250.391 123.822 367.281 63.6759 426.164 65.1651C454.133 65.8748 460.001 79.9127 460.001 91.5634ZM85.926 313.207C85.926 329.207 97.3149 337.955 118.858 338.498C177.56 339.987 294.189 279.938 378.841 204.641C429.075 159.957 459.068 117.688 459.068 91.5634C459.068 75.5632 447.679 66.8211 426.137 66.2727C367.43 64.7834 250.801 124.833 166.148 200.13C115.915 244.813 85.9215 287.083 85.9215 313.207L85.926 313.207Z" fill="rgba(105, 104, 104, 0.1)"/>
<path d="M460.141 97.7734C460.141 125.871 428.489 169.705 375.466 215.039C288.343 289.529 170.146 345.665 111.985 340.165C85.2411 337.638 79.6255 323.164 79.6255 311.471C79.6255 283.373 111.277 239.539 164.301 194.205C251.423 119.709 369.625 63.5792 427.786 69.0793C454.53 71.6062 460.141 86.0796 460.141 97.7734ZM80.5809 311.471C80.5809 327.557 91.465 337.084 112.061 339.03C170.029 344.509 287.942 288.476 374.912 214.114C427.683 168.995 459.186 125.5 459.186 97.7734C459.186 81.6925 448.302 72.16 427.705 70.2138C369.733 64.7352 251.82 120.768 164.851 195.13C112.08 240.249 80.5765 283.744 80.5765 311.471L80.5809 311.471Z" fill="rgba(105, 104, 104, 0.1)"/>
<path d="M460.01 104.284C460.01 134.145 426.795 179.231 371.162 224.888C281.772 298.244 162.457 350.019 105.179 340.309C85.0336 336.895 74.3838 326.196 74.3838 309.373C74.3838 279.513 107.599 234.426 163.232 188.775C252.617 115.419 371.941 63.6435 429.219 73.3533C449.361 76.7674 460.01 87.4665 460.01 104.289L460.01 104.284ZM75.3663 309.373C75.3663 325.535 85.7231 335.831 105.319 339.154C162.385 348.826 281.398 297.137 370.612 223.926C398.239 201.253 420.967 178.113 436.34 157.005C451.186 136.618 459.037 118.386 459.037 104.284C459.037 88.1224 448.68 77.8265 429.089 74.5039C372.018 64.8317 253.009 116.521 163.796 189.732C136.169 212.404 113.44 235.544 98.0675 256.652C83.2218 277.04 75.3708 295.271 75.3708 309.368L75.3663 309.373Z" fill="rgba(105, 104, 104, 0.1)"/>
<path d="M459.6 111.074C459.6 126.344 451.263 145.65 435.484 166.903C419.273 188.742 395.413 212.307 366.479 235.05C274.904 307.04 154.66 354.122 98.4416 339.998C79.373 335.207 69.2957 323.761 69.2957 306.9C69.2957 291.631 77.6334 272.325 93.4119 251.071C109.623 229.232 133.483 205.667 162.417 182.925C253.992 110.935 374.236 63.8532 430.459 77.9771C449.523 82.7675 459.6 94.214 459.6 111.074ZM70.2962 306.9C70.2962 323.126 80.0987 334.17 98.6445 338.826C154.638 352.896 274.539 305.89 365.925 234.05C394.787 211.361 418.579 187.866 434.731 166.108C450.343 145.075 458.595 126.042 458.595 111.069C458.595 94.843 448.793 83.8052 430.251 79.1438C374.253 65.0737 254.353 112.074 162.967 183.92C134.109 206.608 110.313 230.103 94.1646 251.862C78.5528 272.894 70.3007 291.927 70.3007 306.895L70.2962 306.9Z" fill="rgba(105, 104, 104, 0.1)"/>
<path d="M458.902 118.139C458.902 134.371 450.14 154.538 433.564 176.463C416.546 198.974 391.591 222.862 361.404 245.55C316.034 279.642 263.024 308.169 212.132 325.863C161.195 343.573 118.452 348.321 91.7849 339.229C73.8431 333.111 64.3606 320.955 64.3606 304.067C64.3606 287.18 73.122 267.669 89.6982 245.744C106.716 223.233 131.671 199.345 161.858 176.662C207.229 142.57 260.243 114.043 311.135 96.3487C362.071 78.6387 404.815 73.8913 431.482 82.9829C449.419 89.1012 458.902 101.257 458.902 118.145L458.902 118.139ZM65.3927 304.067C65.3927 320.347 74.6182 332.095 92.0689 338.046C146.809 356.708 267.386 314.75 360.855 244.507C390.965 221.883 415.843 198.065 432.798 175.64C449.198 153.946 457.87 134.064 457.87 118.139C457.87 102.214 448.644 90.112 431.198 84.1603C376.457 65.4987 255.876 107.456 162.408 177.7C132.297 200.324 107.419 224.141 90.4645 246.566C74.0639 268.26 65.3927 288.142 65.3927 304.067Z" fill="rgba(105, 104, 104, 0.1)"/>
<path d="M457.91 125.456C457.91 142.742 448.712 163.828 431.311 186.436C413.454 209.635 387.391 233.813 355.933 256.356C309.589 289.561 255.93 316.341 204.835 331.761C153.691 347.197 111.214 349.396 85.2319 337.96C68.4663 330.578 59.6013 317.755 59.6013 300.868C59.6013 283.981 68.7999 262.496 86.2009 239.888C104.053 216.689 130.12 192.511 161.578 169.968C207.923 136.763 261.582 109.983 312.676 94.5634C363.82 79.1276 406.297 76.9287 432.279 88.3643C449.045 95.7462 457.906 108.569 457.906 125.456L457.91 125.456ZM60.665 300.873C60.665 317.185 69.2866 329.6 85.6015 336.783C138.9 360.245 259.927 323.68 355.388 255.281C417.97 210.436 456.851 160.694 456.851 125.462C456.851 109.155 448.229 96.7354 431.914 89.5579C378.612 66.0951 257.584 102.66 162.124 171.059C99.5413 215.904 60.6605 265.647 60.6605 300.879L60.665 300.873Z" fill="rgba(105, 104, 104, 0.1)"/>
<path d="M456.612 133C456.612 171.172 415.78 222.7 350.052 267.48C302.783 299.68 248.561 324.567 197.368 337.551C146.115 350.552 104.012 350.068 78.8097 336.186C63.2564 327.621 55.0359 314.18 55.0359 297.325C55.0359 259.152 95.8682 207.625 161.592 162.85C208.86 130.65 263.087 105.763 314.276 92.7785C365.528 79.7783 407.631 80.2622 432.834 94.1441C448.383 102.709 456.603 116.144 456.603 133L456.612 133ZM56.1266 297.32C56.1266 313.868 63.9144 326.546 79.2694 335.003C130.936 363.461 252.171 332.664 349.515 266.351C382.168 244.109 409.276 219.759 427.917 195.942C445.976 172.861 455.526 151.097 455.526 133C455.526 116.456 447.743 103.779 432.388 95.3162C380.716 66.8533 259.486 97.6549 162.137 163.968C129.485 186.21 102.376 210.56 83.7357 234.378C65.6766 257.459 56.1266 279.223 56.1266 297.32Z" fill="rgba(105, 104, 104, 0.1)"/>
<path d="M455.008 140.742C455.008 160.435 444.894 183.56 425.758 207.63C406.153 232.286 377.8 256.932 343.755 278.9C295.618 309.97 240.913 332.804 189.728 343.197C138.476 353.605 96.8552 350.288 72.5316 333.858C58.2312 324.196 50.6687 310.218 50.6687 293.432C50.6687 273.738 60.7821 250.609 79.9183 226.544C99.5233 201.888 127.876 177.248 161.921 155.274C210.059 124.204 264.763 101.37 315.948 90.9773C367.2 80.5685 408.821 83.8858 433.145 100.316C447.445 109.972 455.003 123.951 455.003 140.742L455.008 140.742ZM51.7909 293.432C51.7909 309.949 58.9569 323.159 73.0859 332.702C122.923 366.364 244.108 341.702 343.228 277.728C377.169 255.824 405.428 231.265 424.951 206.71C443.885 182.898 453.895 160.086 453.895 140.742C453.895 124.231 446.729 111.015 432.6 101.472C382.762 67.8102 261.573 92.472 162.453 156.441C128.512 178.344 100.253 202.904 80.7296 227.458C61.7962 251.27 51.7864 274.083 51.7864 293.427L51.7909 293.432Z" fill="rgba(105, 104, 104, 0.1)"/>
<path d="M453.088 148.651C453.088 169.726 442.488 193.995 422.441 218.84C401.921 244.265 372.388 269.088 337.036 290.615C288.082 320.428 232.999 341.052 181.936 348.692C130.796 356.342 89.7749 350.052 66.4338 330.971C53.2241 320.175 46.5269 306.132 46.5269 289.217C46.5269 268.142 57.1225 243.873 77.1736 219.028C97.6934 193.603 127.227 168.78 162.579 147.253C211.533 117.44 266.616 96.8164 317.683 89.1765C368.823 81.5258 409.844 87.8163 433.19 106.897C446.395 117.688 453.092 131.736 453.092 148.645L453.088 148.651ZM47.6671 289.217C47.6671 305.653 54.1976 319.32 67.0737 329.847C114.874 368.907 235.744 350.767 336.513 289.4C371.752 267.943 401.182 243.217 421.616 217.894C441.456 193.313 451.943 169.366 451.943 148.651C451.943 132.215 445.413 118.548 432.536 108.026C384.736 68.9611 263.862 87.1066 163.093 148.473C127.853 169.931 98.4235 194.657 77.9894 219.98C58.1501 244.561 47.6626 268.507 47.6626 289.223L47.6671 289.217Z" fill="rgba(105, 104, 104, 0.1)"/>
<path d="M450.852 156.688C450.852 179.286 439.752 204.797 418.754 230.453C397.284 256.69 366.547 281.642 329.879 302.61C280.177 331.03 224.81 349.278 173.981 354.004C123.072 358.735 82.7756 349.321 60.5162 327.492C48.627 315.836 42.6013 301.438 42.6013 284.701C42.6013 262.104 53.7017 236.593 74.6993 210.937C96.17 184.7 126.902 159.748 163.575 138.78C213.277 110.36 268.644 92.1067 319.472 87.3862C370.382 82.655 410.682 92.0745 432.942 113.897C444.831 125.554 450.857 139.952 450.857 156.683L450.852 156.688ZM43.7686 284.707C43.7686 301.003 49.6546 315.035 61.2553 326.417C106.806 371.079 227.081 359.837 329.369 301.352C402.453 259.567 449.68 202.781 449.68 156.688C449.68 140.392 443.799 126.36 432.194 114.983C386.643 70.316 266.363 81.5582 164.08 140.043C90.9962 181.829 43.7731 238.615 43.7731 284.707L43.7686 284.707Z" fill="rgba(105, 104, 104, 0.1)"/>
<path d="M448.297 164.801C448.297 189.081 436.678 215.937 414.689 242.464C392.231 269.561 360.278 294.605 322.276 314.885C271.893 341.772 216.346 357.487 165.878 359.127C115.32 360.767 75.8755 348.084 54.8104 323.412C44.2508 311.046 38.9011 296.417 38.9011 279.927C38.9011 255.647 50.5199 228.792 72.5044 202.264C94.9622 175.167 126.916 150.124 164.918 129.844C215.305 102.951 270.848 87.241 321.316 85.6012C371.874 83.9614 411.318 96.6444 432.388 121.322C442.943 133.688 448.297 148.317 448.297 164.801ZM40.1045 279.927C40.1045 296.013 45.3369 310.299 55.6532 322.385C98.7389 372.848 218.122 368.896 321.784 313.573C359.651 293.363 391.479 268.427 413.833 241.453C435.592 215.2 447.089 188.694 447.089 164.801C447.089 148.715 441.856 134.43 431.54 122.349C388.454 71.8805 269.067 75.8322 165.409 131.156C127.542 151.366 95.7148 176.302 73.3607 203.275C51.6015 229.528 40.1045 256.034 40.1045 279.927Z" fill="rgba(105, 104, 104, 0.1)"/>
<path d="M445.426 172.936C445.426 199.076 433.262 227.41 410.25 254.862C386.769 282.873 353.567 307.96 314.231 327.417C263.24 352.638 207.63 365.638 157.648 364.025C107.577 362.407 69.1153 346.31 49.3527 318.686C40.1271 305.793 35.449 291.067 35.449 274.916C35.449 248.776 47.613 220.442 70.6251 192.99C94.106 164.979 127.308 139.892 166.644 120.435C217.64 95.2142 273.245 82.2087 323.227 83.827C373.298 85.4453 411.76 101.548 431.522 129.166C440.748 142.059 445.422 156.785 445.422 172.931L445.426 172.936ZM36.6884 274.916C36.6884 290.707 41.2674 305.11 50.2946 317.729C90.6898 374.192 208.883 377.923 313.758 326.051C352.945 306.669 386.007 281.691 409.376 253.814C432.153 226.641 444.191 198.673 444.191 172.931C444.191 157.145 439.612 142.742 430.585 130.123C390.185 73.6601 271.997 69.9235 167.117 121.795C127.93 141.177 94.8676 166.156 71.4995 194.028C48.7217 221.2 36.6839 249.168 36.6839 274.911L36.6884 274.916Z" fill="rgba(105, 104, 104, 0.1)"/>
<path d="M442.244 181.022C442.244 195.076 439.031 209.711 432.69 224.523C426.434 239.147 417.258 253.647 405.423 267.626C380.879 296.616 346.406 321.707 305.731 340.192C254.208 363.601 198.652 373.719 149.293 368.681C99.8388 363.633 62.5038 343.971 44.1653 313.309C36.2603 300.094 32.2537 285.433 32.2537 269.733C32.2537 255.679 35.4671 241.045 41.8082 226.227C48.0638 211.603 57.2398 197.103 69.0749 183.124C93.6193 154.135 128.092 129.043 168.767 110.559C220.29 87.1496 275.85 77.0311 325.205 82.0689C374.659 87.1173 411.994 106.784 430.337 137.446C438.242 150.661 442.249 165.318 442.249 181.022L442.244 181.022ZM33.5201 269.733C33.5201 285.11 37.4501 299.476 45.1974 312.433C82.6766 375.09 199.351 386.907 305.28 338.783C345.793 320.379 380.112 295.4 404.531 266.556C416.271 252.69 425.366 238.319 431.558 223.84C437.805 209.243 440.973 194.84 440.973 181.028C440.973 165.651 437.043 151.285 429.296 138.333C391.812 75.6763 275.138 63.8535 169.209 111.978C128.696 130.382 94.3765 155.36 69.9582 184.205C58.2178 198.071 49.1229 212.442 42.9305 226.921C36.6839 241.518 33.5156 255.927 33.5156 269.739L33.5201 269.733Z" fill="rgba(105, 104, 104, 0.1)"/>
<path d="M438.756 188.985C438.756 204.179 435.385 219.856 428.732 235.582C422.175 251.077 412.584 266.282 400.217 280.766C374.564 310.82 338.793 335.869 296.771 353.213C244.802 374.66 189.417 381.719 140.824 373.085C92.1364 364.434 56.0678 341.057 39.2662 307.261C32.6546 293.965 29.3015 279.556 29.3015 264.443C29.3015 249.33 32.6727 233.572 39.3248 217.845C45.8823 202.351 55.473 187.146 67.8398 172.662C93.493 142.608 129.264 117.559 171.286 100.214C223.255 78.7678 278.64 71.7085 327.233 80.3431C375.921 88.9938 411.989 112.371 428.796 146.167C435.407 159.463 438.76 173.872 438.76 188.985L438.756 188.985ZM30.604 264.438C30.604 279.271 33.894 293.411 40.3884 306.465C74.7173 375.509 189.539 395.822 296.347 351.74C338.185 334.471 373.789 309.546 399.307 279.653C411.57 265.287 421.08 250.222 427.57 234.878C434.132 219.372 437.453 203.931 437.453 188.985C437.453 174.038 434.163 160.017 427.673 146.963C393.345 77.9183 278.518 57.6008 171.714 101.682C129.877 118.951 94.2726 143.876 68.7547 173.769C56.4915 188.135 46.982 203.2 40.4921 218.544C33.9346 234.05 30.6085 249.491 30.6085 264.443L30.604 264.438Z" fill="rgba(105, 104, 104, 0.1)"/>
<path d="M434.965 196.716C434.965 213.184 431.423 230.017 424.437 246.754C417.564 263.217 407.532 279.19 394.615 294.223C367.799 325.438 330.703 350.407 287.338 366.428C235.009 385.762 179.935 389.579 132.252 377.176C109.042 371.138 88.8463 361.579 72.2204 348.756C54.9726 335.46 42.3443 319.223 34.6826 300.492C29.3195 287.384 26.6018 273.454 26.6018 259.088C26.6018 242.62 30.1442 225.786 37.1299 209.049C44.0029 192.587 54.0352 176.613 66.9519 161.581C93.7678 130.371 130.864 105.402 174.229 89.3753C226.558 70.0416 281.637 66.2243 329.315 78.6278C352.526 84.6655 372.721 94.2302 389.347 107.048C406.595 120.344 419.223 136.586 426.885 155.312C432.248 168.42 434.965 182.345 434.965 196.71L434.965 196.716ZM27.9403 259.093C27.9403 273.212 30.6129 286.906 35.886 299.798C43.4395 318.261 55.91 334.288 72.946 347.423C89.4367 360.138 109.483 369.622 132.536 375.622C179.998 387.972 234.833 384.165 286.942 364.912C330.104 348.966 367.015 324.127 393.682 293.088C406.491 278.18 416.438 262.351 423.239 246.05C430.13 229.539 433.622 212.942 433.622 196.721C433.622 182.603 430.95 168.909 425.677 156.022C418.123 137.559 405.653 121.532 388.612 108.397C372.121 95.6818 352.07 86.1925 329.022 80.1977C281.56 67.8481 226.725 71.6546 174.617 90.9076C131.454 106.854 94.543 131.693 67.8758 162.731C55.0673 177.64 45.1206 193.468 38.3197 209.77C31.4287 226.281 27.9358 242.878 27.9358 259.099L27.9403 259.093Z" fill="rgba(105, 104, 104, 0.1)"/>
<path d="M430.9 204.114C430.9 222.006 427.178 240.136 419.84 258.002C412.634 275.545 402.137 292.368 388.644 308.008C375.029 323.782 358.736 337.912 340.222 350.003C321.072 362.503 299.953 372.547 277.446 379.853C224.855 396.918 170.218 397.316 123.603 380.961C100.911 373.004 81.3514 361.498 65.4692 346.772C48.9966 331.503 37.2156 313.411 30.4553 293.013C26.2774 280.405 24.1592 267.217 24.1592 253.808C24.1592 235.915 27.8773 217.786 35.219 199.915C42.4255 182.371 52.922 165.548 66.4156 149.908C80.0309 134.134 96.3233 120.005 114.838 107.913C133.987 95.4129 155.106 85.3697 177.614 78.0631C230.205 60.9983 284.841 60.6005 331.461 76.9556C354.153 84.9181 373.713 96.4183 389.595 111.144C406.067 126.419 417.848 144.505 424.609 164.909C428.787 177.511 430.905 190.699 430.905 204.108L430.9 204.114ZM25.5293 253.808C25.5293 267.007 27.6159 279.997 31.7262 292.411C38.3919 312.535 50.0286 330.39 66.303 345.482C82.05 360.079 101.457 371.493 123.982 379.391C170.358 395.66 224.729 395.262 277.081 378.273C299.484 371.004 320.504 361.009 339.559 348.568C357.966 336.551 374.159 322.508 387.684 306.836C401.065 291.33 411.471 274.658 418.606 257.281C425.853 239.641 429.526 221.754 429.526 204.114C429.526 190.915 427.439 177.925 423.329 165.516C416.659 145.392 405.026 127.537 388.747 112.445C373 97.843 353.594 86.4342 331.068 78.5309C284.693 62.2618 230.322 62.6596 177.97 79.6492C155.566 86.9181 134.546 96.9129 115.491 109.354C97.085 121.37 80.8917 135.414 67.3666 151.086C53.9857 166.592 43.5793 183.264 36.4449 200.64C29.1978 218.281 25.5248 236.168 25.5248 253.813L25.5293 253.808Z" fill="rgba(105, 104, 104, 0.1)"/>
<path d="M426.569 211.044C426.569 249.641 410.845 289.077 382.289 322.094C368.074 338.53 351.124 352.971 331.911 365.009C312.04 377.461 290.223 387.036 267.071 393.461C214.318 408.101 160.267 404.886 114.874 384.407C92.7809 374.439 73.9376 360.917 58.8666 344.213C43.2458 326.895 32.3887 306.906 26.5929 284.792C23.5147 273.045 21.9553 260.905 21.9553 248.7C21.9553 210.103 37.6798 170.667 66.2354 137.65C80.4501 121.214 97.4005 106.773 116.613 94.7354C136.484 82.2835 158.302 72.7081 181.454 66.2833C234.207 51.6432 288.262 54.8583 333.655 75.3372C355.748 85.3051 374.591 98.8268 389.662 115.531C405.283 132.849 416.145 152.844 421.936 174.957C425.014 186.699 426.574 198.845 426.574 211.044L426.569 211.044ZM23.3615 248.7C23.3615 260.733 24.9028 272.711 27.9359 284.292C33.6552 306.126 44.386 325.868 59.8266 342.987C74.7624 359.541 93.4479 372.95 115.369 382.837C160.506 403.198 214.268 406.391 266.751 391.826C289.786 385.434 311.491 375.912 331.258 363.525C350.349 351.562 367.191 337.218 381.311 320.89C409.592 288.196 425.163 249.184 425.163 211.049C425.163 199.017 423.626 187.043 420.589 175.463C414.869 153.629 404.139 133.881 388.698 116.768C373.762 100.214 355.077 86.8051 333.151 76.9125C288.014 56.5519 234.252 53.3583 181.769 67.9231C158.735 74.3157 137.029 83.8373 117.262 96.2246C98.1711 108.187 81.3289 122.532 67.2089 138.86C38.9327 171.554 23.357 210.565 23.357 248.706L23.3615 248.7Z" fill="rgba(105, 104, 104, 0.1)"/>
<path d="M422.004 217.335C422.004 259.502 405.513 301.798 375.57 336.428C360.719 353.6 343.084 368.38 323.155 380.359C302.531 392.752 280.015 401.784 256.223 407.214C203.411 419.263 150.095 412.252 106.09 387.477C84.6731 375.418 66.6276 359.799 52.4535 341.052C37.7656 321.621 27.9 299.669 23.1363 275.798C21.0451 265.319 19.9814 254.588 19.9814 243.894C19.9814 201.721 36.4721 159.425 66.4158 124.795C81.2659 107.623 98.9014 92.8433 118.831 80.8646C139.454 68.4719 161.971 59.4395 185.762 54.0093C238.574 41.9607 291.89 48.9716 335.895 73.7462C357.312 85.8055 375.358 101.429 389.532 120.177C404.22 139.608 414.085 161.565 418.854 185.431C420.945 195.904 422.004 206.641 422.004 217.335ZM21.4237 243.894C21.4237 254.454 22.4692 265.056 24.5379 275.4C29.2476 298.981 39.0005 320.68 53.5261 339.896C67.5696 358.471 85.4618 373.956 106.707 385.918C150.437 410.542 203.438 417.505 255.952 405.521C279.614 400.123 302.004 391.139 322.506 378.821C342.304 366.923 359.823 352.246 374.565 335.191C404.224 300.89 420.557 259.034 420.557 217.335C420.557 206.775 419.512 196.178 417.443 185.834C412.733 162.248 402.98 140.548 388.455 121.333C374.411 102.752 356.519 87.2679 335.274 75.3053C291.543 50.6813 238.542 43.7188 186.028 55.6975C162.367 61.0954 139.977 70.0794 119.475 82.3969C99.6766 94.2949 82.1583 108.973 67.4163 126.027C37.7566 160.328 21.4237 202.189 21.4237 243.889L21.4237 243.894Z" fill="rgba(105, 104, 104, 0.1)"/>
<path d="M417.236 222.808C417.236 269.007 399.925 314.535 368.494 350.998C336.81 387.757 292.913 412.655 244.893 421.118C218.234 425.817 191.653 425.354 165.887 419.757C140.996 414.349 117.907 404.391 97.2654 390.16C76.6103 375.923 59.4482 358.127 46.2475 337.267C32.5736 315.653 23.7762 291.685 20.1031 266.023C18.8502 257.281 18.2192 248.383 18.2192 239.571C18.2192 193.372 35.5302 147.844 66.9611 111.381C98.649 74.6224 142.541 49.7187 190.558 41.2616C217.216 36.5626 243.802 37.025 269.563 42.6218C294.455 48.0305 317.544 57.9877 338.185 72.2191C358.84 86.4559 376.002 104.252 389.203 125.112C402.877 146.726 411.674 170.694 415.347 196.356C416.6 205.092 417.231 213.996 417.231 222.802L417.236 222.808ZM19.702 239.571C19.702 248.287 20.3285 257.082 21.5679 265.728C25.2004 291.105 33.9032 314.82 47.4328 336.202C60.5118 356.869 77.5298 374.509 98.009 388.628C118.502 402.752 141.428 412.639 166.153 418.015C191.757 423.58 218.176 424.037 244.676 419.365C292.391 410.961 335.995 386.23 367.462 349.729C398.604 313.605 415.753 268.529 415.753 222.808C415.753 214.098 415.126 205.297 413.887 196.657C410.254 171.275 401.552 147.564 388.022 126.177C374.943 105.505 357.925 87.8699 337.446 73.7514C316.953 59.6275 294.027 49.7349 269.302 44.3638C243.698 38.7992 217.279 38.3422 190.779 43.0089C143.069 51.4123 99.4647 76.1439 67.9977 112.65C36.8552 148.78 19.7065 193.856 19.7065 239.571L19.702 239.571Z" fill="rgba(105, 104, 104, 0.1)"/>
<path d="M412.305 227.233C412.305 278.002 394.111 327.191 361.08 365.746C327.86 404.515 282.403 429.155 233.089 435.129C206.517 438.349 180.246 436.091 155.003 428.43C130.621 421.026 108.217 408.908 88.4229 392.418C68.6197 375.918 52.422 355.875 40.2804 332.836C27.7017 308.976 20.0491 282.938 17.5342 255.448C16.9438 248.98 16.6418 242.416 16.6418 235.942C16.6418 185.178 34.8361 135.984 67.8715 97.4293C101.092 58.6544 146.548 34.0143 195.862 28.041C222.435 24.8205 248.705 27.0786 273.949 34.74C298.331 42.1434 320.734 54.2619 340.529 70.7514C360.332 87.2517 376.53 107.295 388.671 130.333C401.25 154.194 408.902 180.232 411.417 207.727C412.008 214.195 412.31 220.754 412.31 227.233L412.305 227.233ZM18.1652 235.942C18.1652 242.351 18.4626 248.846 19.0485 255.249C21.5363 282.465 29.1169 308.245 41.5694 331.869C53.6027 354.697 69.6608 374.568 89.2973 390.929C108.943 407.295 131.175 419.322 155.382 426.671C180.449 434.284 206.544 436.521 232.936 433.327C281.912 427.397 327.044 402.934 360.016 364.45C392.754 326.24 410.786 277.513 410.786 227.238C410.786 220.829 410.489 214.334 409.903 207.931C407.415 180.716 399.835 154.93 387.382 131.306C375.349 108.478 359.291 88.6066 339.654 72.2461C320.009 55.8802 297.776 43.8531 273.57 36.5035C248.503 28.8905 222.408 26.6539 196.016 29.8475C147.044 35.7777 101.912 60.2405 68.9352 98.725C36.1972 136.935 18.1652 185.667 18.1652 235.942Z" fill="rgba(105, 104, 104, 0.1)"/>
<path d="M407.266 230.335C407.266 286.287 388.117 339.654 353.346 380.617C318.472 421.698 271.402 446.064 220.803 449.231C194.379 450.881 168.492 446.742 143.862 436.919C120.07 427.429 98.4415 413.064 79.5848 394.224C60.7235 375.38 45.5804 353.009 34.5746 327.734C23.1812 301.562 16.7499 273.4 15.4564 244.039C15.2986 240.453 15.2175 236.824 15.2175 233.243C15.2175 177.291 34.3673 123.919 69.1378 82.9557C104.012 41.8744 151.082 17.5084 201.681 14.3417C228.104 12.6911 253.992 16.831 278.622 26.6537C302.414 36.1431 324.042 50.509 342.899 69.348C361.76 88.1924 376.903 110.564 387.909 135.838C399.303 162.016 405.734 190.173 407.027 219.533C407.185 223.119 407.266 226.749 407.266 230.329L407.266 230.335ZM16.7814 233.243C16.7814 236.792 16.8625 240.389 17.0158 243.942C18.2957 273.034 24.6685 300.938 35.9582 326.874C46.8648 351.933 61.8817 374.111 80.5853 392.794C99.2933 411.483 120.751 425.73 144.358 435.15C168.803 444.897 194.497 449.01 220.722 447.371C270.933 444.231 317.647 420.053 352.246 379.294C386.719 338.686 405.702 285.787 405.702 230.34C405.702 226.797 405.621 223.195 405.468 219.641C404.188 190.544 397.815 162.64 386.526 136.704C375.619 111.644 360.602 89.4666 341.899 70.7835C323.19 52.095 301.733 37.8421 278.126 28.4279C253.681 18.6805 227.987 14.5675 201.762 16.2073C151.551 19.3472 104.837 43.525 70.2375 84.2837C35.7644 124.892 16.7814 177.791 16.7814 233.243Z" fill="rgba(105, 104, 104, 0.1)"/>
<path d="M402.178 231.792C402.178 263.056 397.045 293.384 386.922 321.939C377.142 349.52 363.144 374.284 345.315 395.558C327.485 416.827 306.722 433.526 283.607 445.193C259.67 457.269 234.247 463.393 208.035 463.393C181.823 463.393 156.4 457.269 132.468 445.193C109.348 433.526 88.5894 416.827 70.7602 395.558C52.931 374.289 38.9327 349.52 29.1527 321.939C19.0303 293.384 13.897 263.056 13.897 231.792C13.897 200.528 19.0303 170.194 29.1527 141.64C38.9327 114.059 52.931 89.2894 70.7602 68.0203C88.5894 46.7511 109.353 30.0519 132.468 18.385C156.404 6.30953 181.828 0.185785 208.035 0.185785C234.243 0.185785 259.67 6.30953 283.607 18.385C306.727 30.0519 327.485 46.7511 345.315 68.0203C363.144 89.2894 377.142 114.059 386.922 141.64C397.045 170.194 402.178 200.523 402.178 231.792ZM15.4969 231.792C15.4969 262.798 20.5897 292.879 30.6265 321.191C40.3253 348.541 54.2065 373.106 71.8915 394.203C89.5765 415.3 110.164 431.86 133.095 443.43C156.833 455.409 182.049 461.479 208.04 461.479C234.031 461.479 259.247 455.403 282.985 443.43C305.911 431.86 326.503 415.3 344.188 394.203C361.868 373.106 375.754 348.547 385.453 321.191C395.494 292.874 400.583 262.798 400.583 231.792C400.583 200.786 395.49 170.705 385.453 142.387C375.754 115.037 361.873 90.4723 344.188 69.3751C326.503 48.278 305.916 31.7186 282.985 20.1485C259.247 8.16979 234.031 2.09979 208.04 2.09979C182.049 2.09979 156.833 8.17517 133.095 20.1485C110.168 31.7186 89.5765 48.278 71.8915 69.3751C54.2065 90.4723 40.3253 115.037 30.6265 142.387C20.5852 170.705 15.4969 200.786 15.4969 231.792Z" fill="rgba(105, 104, 104, 0.1)"  />
</g>
</svg>
